<svg version="1.1" id="Layer_1" xmlns="http://www.w3.org/2000/svg" xmlns:xlink="http://www.w3.org/1999/xlink" x="0px" y="0px"
	 width="100%" viewBox="0 0 1254 1254" enable-background="new 0 0 1254 1254" xml:space="preserve">
<path fill="#FEFEFE" opacity="1.000000" stroke="none" 
	d="
M692.000000,1255.000000 
	C461.333344,1255.000000 231.166672,1255.000000 1.000000,1255.000000 
	C1.000000,837.000000 1.000000,419.000000 1.000000,1.000000 
	C419.000000,1.000000 837.000000,1.000000 1255.000000,1.000000 
	C1255.000000,419.000000 1255.000000,837.000000 1255.000000,1255.000000 
	C1067.500000,1255.000000 880.000000,1255.000000 692.000000,1255.000000 
M692.925476,1051.134277 
	C706.551025,1050.390625 720.219360,1050.099609 733.793884,1048.816284 
	C770.578430,1045.338501 806.450073,1037.685425 840.802795,1023.751831 
	C910.569702,995.454102 962.835754,948.135376 995.299927,879.936340 
	C1017.138489,834.059021 1025.718384,785.480774 1021.816223,734.782471 
	C1021.274353,727.742432 1020.121948,720.749329 1019.134399,712.785034 
	C1017.361694,714.431335 1016.358337,715.226685 1015.515564,716.166077 
	C998.515015,735.113831 977.851868,748.860535 954.564575,758.761475 
	C908.652222,778.281860 860.853577,779.991333 812.262695,773.314331 
	C775.315186,768.237244 739.780823,757.380310 704.293396,746.395020 
	C662.706726,733.521667 620.785889,722.182373 577.314270,717.561890 
	C528.124084,712.333801 479.489563,715.037903 431.602783,727.761047 
	C394.079285,737.730713 358.882111,752.742188 328.059448,776.945496 
	C324.885010,779.438171 323.523987,782.032410 323.535248,786.147400 
	C323.673340,836.633606 323.628998,887.120239 323.631165,937.606812 
	C323.632660,972.764099 323.636871,1007.921448 323.628052,1043.078735 
	C323.627167,1046.520752 323.655670,1049.899170 328.912537,1051.155396 
	C426.474701,1051.171021 524.036865,1051.201294 621.599060,1051.191162 
	C645.065918,1051.188721 668.532837,1051.051636 692.925476,1051.134277 
M323.643005,303.943298 
	C323.637878,405.467896 323.631744,506.992493 323.639832,608.517090 
	C323.639923,609.670593 323.824341,610.824036 323.710846,612.877930 
	C323.771942,616.265259 323.833008,619.652649 323.638763,623.941162 
	C323.638763,629.494507 323.638763,635.047852 323.638763,641.424133 
	C326.488129,639.611328 328.426056,638.389954 330.352570,637.151001 
	C391.280151,597.964539 458.110596,578.383057 530.400208,577.297729 
	C586.196838,576.460083 639.910767,587.856140 692.115723,606.629944 
	C725.422241,618.607483 758.210815,632.017456 791.390686,644.357483 
	C824.436035,656.647400 858.347534,665.439209 893.780518,667.090271 
	C924.198120,668.507812 954.002502,665.730347 982.210144,653.149902 
	C987.133728,650.953979 991.798462,648.177612 996.964966,645.468933 
	C967.924133,590.673401 921.255798,559.426819 865.192322,539.809082 
	C865.584290,539.377930 865.749207,539.057861 866.008057,538.933838 
	C867.960938,537.998169 869.930237,537.096741 871.898071,536.192566 
	C891.320374,527.269348 908.779846,515.450562 923.728516,500.164917 
	C963.282043,459.719574 976.141968,410.544952 968.389221,355.797546 
	C959.819580,295.281158 927.103882,250.295151 875.060791,219.200363 
	C821.800781,187.378510 762.918884,177.027130 701.047974,174.925171 
	C696.054932,174.859650 691.061890,174.737488 686.068848,174.736938 
	C570.871704,174.724167 455.674530,174.721573 340.477386,174.736053 
	C336.657745,174.736526 332.838104,174.935394 328.243225,174.921936 
	C326.712830,176.815567 324.072357,178.596634 323.866699,180.624588 
	C323.319733,186.018372 323.822266,191.518570 323.693726,197.724152 
	C323.767792,198.491165 323.841827,199.258194 323.667664,200.931137 
	C323.743622,215.276749 323.819580,229.622360 323.680573,244.794724 
	C323.752747,246.208694 323.824890,247.622650 323.648315,249.941071 
	C323.730530,264.616730 323.812744,279.292358 323.678497,294.854492 
	C323.750549,297.582977 323.822571,300.311462 323.643005,303.943298 
M725.823669,721.742493 
	C737.820129,725.200806 749.764343,728.854248 761.822510,732.082092 
	C803.708740,743.294800 846.013428,750.158752 889.625732,745.218140 
	C935.561218,740.014343 975.074890,722.123291 1006.612000,687.764343 
	C1011.919006,681.982422 1012.113831,680.052307 1007.282654,673.035339 
	C968.703735,695.344116 926.471619,699.617981 883.158081,696.651611 
	C845.001770,694.038452 808.614563,683.214355 772.946655,669.934875 
	C736.937195,656.528259 701.230469,642.266052 664.959900,629.615051 
	C629.495789,617.245300 592.712585,610.215271 555.153137,608.281128 
	C530.033997,606.987610 504.965973,607.906006 479.996582,611.854431 
	C446.221222,617.195251 413.883270,626.944153 383.016296,641.567932 
	C343.446960,660.314697 309.411743,686.322632 281.508911,720.113892 
	C260.223877,745.890869 243.462555,774.296082 233.105865,806.253418 
	C232.590073,807.844971 232.265228,809.498352 231.851471,811.122986 
	C233.899094,810.356201 235.100769,809.238037 236.182648,808.013977 
	C253.167526,788.796265 272.699829,772.474548 293.878998,758.167969 
	C331.288788,732.897766 371.881683,714.275146 415.150391,701.511108 
	C449.135284,691.485840 483.866699,685.766907 519.300781,685.040283 
	C533.928772,684.740295 548.637756,684.949402 563.208008,686.156616 
	C580.900146,687.622498 598.578003,689.820557 616.096375,692.707520 
	C653.301758,698.838989 689.145874,710.350342 725.823669,721.742493 
z"/>
<path fill="#032C58" opacity="1.000000" stroke="none" 
	d="
M701.960876,175.122498 
	C762.918884,177.027130 821.800781,187.378510 875.060791,219.200363 
	C927.103882,250.295151 959.819580,295.281158 968.389221,355.797546 
	C976.141968,410.544952 963.282043,459.719574 923.728516,500.164917 
	C908.779846,515.450562 891.320374,527.269348 871.898071,536.192566 
	C869.930237,537.096741 867.960938,537.998169 866.008057,538.933838 
	C865.749207,539.057861 865.584290,539.377930 865.192322,539.809082 
	C921.255798,559.426819 967.924133,590.673401 996.964966,645.468933 
	C991.798462,648.177612 987.133728,650.953979 982.210144,653.149902 
	C954.002502,665.730347 924.198120,668.507812 893.780518,667.090271 
	C858.347534,665.439209 824.436035,656.647400 791.390686,644.357483 
	C758.210815,632.017456 725.422241,618.607483 692.115723,606.629944 
	C639.910767,587.856140 586.196838,576.460083 530.400208,577.297729 
	C458.110596,578.383057 391.280151,597.964539 330.352570,637.151001 
	C328.426056,638.389954 326.488129,639.611328 323.638763,641.424133 
	C323.638763,635.047852 323.638763,629.494507 324.080505,623.220337 
	C324.322357,618.992188 324.122528,615.484863 323.922699,611.977539 
	C323.824341,610.824036 323.639923,609.670593 323.639832,608.517090 
	C323.631744,506.992493 323.637878,405.467896 324.078491,303.230103 
	C324.307648,299.667267 324.101318,296.817657 323.894958,293.968018 
	C323.812744,279.292358 323.730530,264.616730 324.064606,249.267487 
	C324.285767,247.051926 324.090668,245.509949 323.895538,243.967972 
	C323.819580,229.622360 323.743622,215.276749 324.058472,200.297760 
	C324.268677,198.768402 324.088043,197.872421 323.907410,196.976456 
	C323.822266,191.518570 323.319733,186.018372 323.866699,180.624588 
	C324.072357,178.596634 326.712830,176.815567 328.931641,175.266907 
	C331.932800,175.740387 334.245544,175.981064 336.558289,175.981339 
	C456.609161,175.995087 576.660034,175.992081 696.710876,175.948166 
	C698.460999,175.947525 700.210876,175.409637 701.960876,175.122498 
M690.658569,488.693237 
	C693.313293,488.491547 695.968384,488.293579 698.622742,488.087677 
	C721.073547,486.345856 742.896851,482.158264 762.659485,470.676300 
	C790.739136,454.362183 805.029724,429.772858 804.393066,397.358185 
	C803.755249,364.883453 787.783752,341.556488 759.015381,326.990265 
	C736.223450,315.450134 711.556641,311.289612 686.386780,311.086823 
	C625.729919,310.598114 565.067322,310.819733 504.407013,310.770416 
	C502.960968,310.769226 501.514832,310.951324 500.072327,311.047668 
	C499.918182,311.826233 499.743927,312.296143 499.743652,312.766174 
	C499.709961,370.261292 499.680328,427.756439 499.721954,485.251526 
	C499.722931,486.590851 500.533325,487.929565 500.761566,489.876831 
	C502.140259,490.248047 503.517761,490.937256 504.897858,490.942596 
	C523.863098,491.015961 542.828613,490.997131 561.794067,490.997040 
	C602.719543,490.996826 643.645020,491.019470 684.570190,490.910156 
	C686.398987,490.905243 688.224426,489.692749 690.658569,488.693237 
z"/>
<path fill="#042D59" opacity="1.000000" stroke="none" 
	d="
M328.020020,1050.853394 
	C323.655670,1049.899170 323.627167,1046.520752 323.628052,1043.078735 
	C323.636871,1007.921448 323.632660,972.764099 323.631165,937.606812 
	C323.628998,887.120239 323.673340,836.633606 323.535248,786.147400 
	C323.523987,782.032410 324.885010,779.438171 328.059448,776.945496 
	C358.882111,752.742188 394.079285,737.730713 431.602783,727.761047 
	C479.489563,715.037903 528.124084,712.333801 577.314270,717.561890 
	C620.785889,722.182373 662.706726,733.521667 704.293396,746.395020 
	C739.780823,757.380310 775.315186,768.237244 812.262695,773.314331 
	C860.853577,779.991333 908.652222,778.281860 954.564575,758.761475 
	C977.851868,748.860535 998.515015,735.113831 1015.515564,716.166077 
	C1016.358337,715.226685 1017.361694,714.431335 1019.134399,712.785034 
	C1020.121948,720.749329 1021.274353,727.742432 1021.816223,734.782471 
	C1025.718384,785.480774 1017.138489,834.059021 995.299927,879.936340 
	C962.835754,948.135376 910.569702,995.454102 840.802795,1023.751831 
	C806.450073,1037.685425 770.578430,1045.338501 733.793884,1048.816284 
	C720.219360,1050.099609 706.551025,1050.390625 692.165161,1050.762451 
	C689.926758,1050.262085 688.448608,1050.021118 686.970520,1050.020874 
	C568.903809,1049.998779 450.837097,1049.992310 332.770386,1050.026855 
	C331.186890,1050.027344 329.603485,1050.565918 328.020020,1050.853394 
M404.681610,923.198975 
	C403.164917,923.889465 401.620544,924.525391 400.135834,925.278931 
	C387.781342,931.548401 375.455627,937.900269 365.927856,948.327942 
	C354.604126,960.721375 355.272797,973.856750 367.671967,985.074280 
	C369.029114,986.302002 370.362000,987.636536 371.925232,988.544189 
	C387.494415,997.584167 403.443298,1006.060669 420.958771,1010.466248 
	C445.936737,1016.748779 465.892792,1005.254211 473.103394,980.491028 
	C475.485107,972.311523 476.623566,963.412415 476.373566,954.899902 
	C475.879028,938.059998 484.686188,929.687561 498.310760,927.570923 
	C511.205750,925.567627 524.438171,925.177490 537.527649,925.107910 
	C560.653137,924.984863 583.782837,925.638733 606.910645,925.981628 
	C610.597168,926.036316 613.264832,924.791199 615.859375,921.781616 
	C624.379578,911.898438 635.282959,905.718506 648.113831,903.123291 
	C649.684448,902.805542 651.374878,903.080078 653.120361,903.080078 
	C652.950745,904.158081 653.017212,904.626160 652.832031,904.769714 
	C651.517395,905.788574 650.167114,906.763733 648.799255,907.711060 
	C639.025146,914.481445 630.876892,922.867249 626.110229,933.780334 
	C620.134705,947.460938 614.786133,961.427124 609.541809,975.410645 
	C606.740967,982.878967 609.781311,988.835815 617.470886,990.924194 
	C621.535217,992.027954 626.108459,992.429565 630.264648,991.836304 
	C661.039673,987.443909 684.584534,971.594788 700.496460,945.110779 
	C708.915100,931.098633 711.456665,915.568970 707.324402,899.343567 
	C707.010315,898.110352 707.283020,896.727600 707.283020,895.414368 
	C707.808533,895.172729 708.334106,894.931152 708.859619,894.689575 
	C711.449829,897.984924 714.485046,901.031128 716.508423,904.643982 
	C718.641968,908.453247 719.809631,912.803528 721.278503,916.604797 
	C735.939697,914.960327 748.110291,902.340149 762.614197,908.034180 
	C766.227844,903.426819 769.145386,899.512268 772.318909,895.817566 
	C772.989441,895.036987 774.596985,895.061157 775.772827,894.714600 
	C775.737305,895.893188 776.045105,897.218201 775.614197,898.228088 
	C770.266296,910.762085 774.426331,920.056885 787.489624,924.291321 
	C798.244263,927.777527 808.810791,926.894348 819.286011,922.874695 
	C821.856995,921.888000 824.735107,921.025391 827.426270,921.143799 
	C840.008545,921.697571 848.924988,916.421753 853.932922,904.867554 
	C860.475708,889.771729 857.370728,876.052246 847.016357,864.016846 
	C840.456726,856.392090 835.154602,848.137085 830.088867,839.493958 
	C817.478394,817.978149 797.604736,805.025024 775.101868,795.989380 
	C742.370239,782.846497 708.471375,773.787964 673.412476,769.519287 
	C619.059021,762.901428 568.354065,773.307556 521.991699,802.932373 
	C489.085449,823.958984 464.387604,852.655029 445.626282,886.557556 
	C436.285217,903.437195 423.368195,915.863281 404.681610,923.198975 
M701.594666,977.097412 
	C700.499573,978.122192 699.425964,979.171082 698.305176,980.166931 
	C695.178162,982.945251 691.210754,985.709595 693.794983,990.534912 
	C696.300781,995.213684 701.047058,994.394043 705.404602,993.716309 
	C706.056641,993.614929 706.687073,993.360657 707.320251,993.155090 
	C729.364807,985.995239 743.021057,970.669678 749.808350,948.945374 
	C752.073914,941.693542 753.344971,934.167664 751.434692,926.649536 
	C744.354492,929.330505 737.483887,931.780701 730.763184,934.589417 
	C729.187134,935.248108 727.414673,936.899963 726.925110,938.467407 
	C722.217773,953.537842 713.234924,965.754761 701.594666,977.097412 
z"/>
<path fill="#6DCAD4" opacity="1.000000" stroke="none" 
	d="
M725.444153,721.610962 
	C689.145874,710.350342 653.301758,698.838989 616.096375,692.707520 
	C598.578003,689.820557 580.900146,687.622498 563.208008,686.156616 
	C548.637756,684.949402 533.928772,684.740295 519.300781,685.040283 
	C483.866699,685.766907 449.135284,691.485840 415.150391,701.511108 
	C371.881683,714.275146 331.288788,732.897766 293.878998,758.167969 
	C272.699829,772.474548 253.167526,788.796265 236.182648,808.013977 
	C235.100769,809.238037 233.899094,810.356201 231.851471,811.122986 
	C232.265228,809.498352 232.590073,807.844971 233.105865,806.253418 
	C243.462555,774.296082 260.223877,745.890869 281.508911,720.113892 
	C309.411743,686.322632 343.446960,660.314697 383.016296,641.567932 
	C413.883270,626.944153 446.221222,617.195251 479.996582,611.854431 
	C504.965973,607.906006 530.033997,606.987610 555.153137,608.281128 
	C592.712585,610.215271 629.495789,617.245300 664.959900,629.615051 
	C701.230469,642.266052 736.937195,656.528259 772.946655,669.934875 
	C808.614563,683.214355 845.001770,694.038452 883.158081,696.651611 
	C926.471619,699.617981 968.703735,695.344116 1007.282654,673.035339 
	C1012.113831,680.052307 1011.919006,681.982422 1006.612000,687.764343 
	C975.074890,722.123291 935.561218,740.014343 889.625732,745.218140 
	C846.013428,750.158752 803.708740,743.294800 761.822510,732.082092 
	C749.764343,728.854248 737.820129,725.200806 725.444153,721.610962 
z"/>
<path fill="#001543" opacity="1.000000" stroke="none" 
	d="
M701.504395,175.023834 
	C700.210876,175.409637 698.460999,175.947525 696.710876,175.948166 
	C576.660034,175.992081 456.609161,175.995087 336.558289,175.981339 
	C334.245544,175.981064 331.932800,175.740387 329.319275,175.326813 
	C332.838104,174.935394 336.657745,174.736526 340.477386,174.736053 
	C455.674530,174.721573 570.871704,174.724167 686.068848,174.736938 
	C691.061890,174.737488 696.054932,174.859650 701.504395,175.023834 
z"/>
<path fill="#021949" opacity="1.000000" stroke="none" 
	d="
M328.466278,1051.004395 
	C329.603485,1050.565918 331.186890,1050.027344 332.770386,1050.026855 
	C450.837097,1049.992310 568.903809,1049.998779 686.970520,1050.020874 
	C688.448608,1050.021118 689.926758,1050.262085 691.702271,1050.683594 
	C668.532837,1051.051636 645.065918,1051.188721 621.599060,1051.191162 
	C524.036865,1051.201294 426.474701,1051.171021 328.466278,1051.004395 
z"/>
<path fill="#001C45" opacity="1.000000" stroke="none" 
	d="
M323.816772,612.427734 
	C324.122528,615.484863 324.322357,618.992188 324.208130,622.769775 
	C323.833008,619.652649 323.771942,616.265259 323.816772,612.427734 
z"/>
<path fill="#001C45" opacity="1.000000" stroke="none" 
	d="
M323.786743,294.411255 
	C324.101318,296.817657 324.307648,299.667267 324.204285,302.778442 
	C323.822571,300.311462 323.750549,297.582977 323.786743,294.411255 
z"/>
<path fill="#001C45" opacity="1.000000" stroke="none" 
	d="
M323.788086,244.381348 
	C324.090668,245.509949 324.285767,247.051926 324.188965,248.815277 
	C323.824890,247.622650 323.752747,246.208694 323.788086,244.381348 
z"/>
<path fill="#001C45" opacity="1.000000" stroke="none" 
	d="
M323.800598,197.350311 
	C324.088043,197.872421 324.268677,198.768402 324.182617,199.844788 
	C323.841827,199.258194 323.767792,198.491165 323.800598,197.350311 
z"/>
<path fill="#FDFDFE" opacity="1.000000" stroke="none" 
	d="
M500.966156,489.268585 
	C500.533325,487.929565 499.722931,486.590851 499.721954,485.251526 
	C499.680328,427.756439 499.709961,370.261292 499.743652,312.766174 
	C499.743927,312.296143 499.918182,311.826233 500.072327,311.047668 
	C501.514832,310.951324 502.960968,310.769226 504.407013,310.770416 
	C565.067322,310.819733 625.729919,310.598114 686.386780,311.086823 
	C711.556641,311.289612 736.223450,315.450134 759.015381,326.990265 
	C787.783752,341.556488 803.755249,364.883453 804.393066,397.358185 
	C805.029724,429.772858 790.739136,454.362183 762.659485,470.676300 
	C742.896851,482.158264 721.073547,486.345856 698.622742,488.087677 
	C695.968384,488.293579 693.313293,488.491547 689.900757,488.784302 
	C653.868286,488.935974 618.593628,488.987793 583.318909,489.060089 
	C555.867981,489.116333 528.417053,489.198120 500.966156,489.268585 
z"/>
<path fill="#001E4B" opacity="1.000000" stroke="none" 
	d="
M500.863861,489.572693 
	C528.417053,489.198120 555.867981,489.116333 583.318909,489.060089 
	C618.593628,488.987793 653.868286,488.935974 689.597229,488.959076 
	C688.224426,489.692749 686.398987,490.905243 684.570190,490.910156 
	C643.645020,491.019470 602.719543,490.996826 561.794067,490.997040 
	C542.828613,490.997131 523.863098,491.015961 504.897858,490.942596 
	C503.517761,490.937256 502.140259,490.248047 500.863861,489.572693 
z"/>
<path fill="#FDFDFD" opacity="1.000000" stroke="none" 
	d="
M405.025513,923.055237 
	C423.368195,915.863281 436.285217,903.437195 445.626282,886.557556 
	C464.387604,852.655029 489.085449,823.958984 521.991699,802.932373 
	C568.354065,773.307556 619.059021,762.901428 673.412476,769.519287 
	C708.471375,773.787964 742.370239,782.846497 775.101868,795.989380 
	C797.604736,805.025024 817.478394,817.978149 830.088867,839.493958 
	C835.154602,848.137085 840.456726,856.392090 847.016357,864.016846 
	C857.370728,876.052246 860.475708,889.771729 853.932922,904.867554 
	C848.924988,916.421753 840.008545,921.697571 827.426270,921.143799 
	C824.735107,921.025391 821.856995,921.888000 819.286011,922.874695 
	C808.810791,926.894348 798.244263,927.777527 787.489624,924.291321 
	C774.426331,920.056885 770.266296,910.762085 775.614197,898.228088 
	C776.045105,897.218201 775.737305,895.893188 775.772827,894.714600 
	C774.596985,895.061157 772.989441,895.036987 772.318909,895.817566 
	C769.145386,899.512268 766.227844,903.426819 762.614197,908.034180 
	C748.110291,902.340149 735.939697,914.960327 721.278503,916.604797 
	C719.809631,912.803528 718.641968,908.453247 716.508423,904.643982 
	C714.485046,901.031128 711.449829,897.984924 708.859619,894.689575 
	C708.334106,894.931152 707.808533,895.172729 707.283020,895.414368 
	C707.283020,896.727600 707.010315,898.110352 707.324402,899.343567 
	C711.456665,915.568970 708.915100,931.098633 700.496460,945.110779 
	C684.584534,971.594788 661.039673,987.443909 630.264648,991.836304 
	C626.108459,992.429565 621.535217,992.027954 617.470886,990.924194 
	C609.781311,988.835815 606.740967,982.878967 609.541809,975.410645 
	C614.786133,961.427124 620.134705,947.460938 626.110229,933.780334 
	C630.876892,922.867249 639.025146,914.481445 648.799255,907.711060 
	C650.167114,906.763733 651.517395,905.788574 652.832031,904.769714 
	C653.017212,904.626160 652.950745,904.158081 653.120361,903.080078 
	C651.374878,903.080078 649.684448,902.805542 648.113831,903.123291 
	C635.282959,905.718506 624.379578,911.898438 615.859375,921.781616 
	C613.264832,924.791199 610.597168,926.036316 606.910645,925.981628 
	C583.782837,925.638733 560.653137,924.984863 537.527649,925.107910 
	C524.438171,925.177490 511.205750,925.567627 498.310760,927.570923 
	C484.686188,929.687561 475.879028,938.059998 476.373566,954.899902 
	C476.623566,963.412415 475.485107,972.311523 473.103394,980.491028 
	C465.892792,1005.254211 445.936737,1016.748779 420.958771,1010.466248 
	C403.443298,1006.060669 387.494415,997.584167 371.925232,988.544189 
	C370.362000,987.636536 369.029114,986.302002 367.671967,985.074280 
	C355.272797,973.856750 354.604126,960.721375 365.927856,948.327942 
	C375.455627,937.900269 387.781342,931.548401 400.135834,925.278931 
	C401.620544,924.525391 403.164917,923.889465 405.025513,923.055237 
M790.835205,866.822815 
	C797.341858,866.390808 801.372070,862.571228 800.997314,857.191772 
	C800.628479,851.897400 796.103577,848.196533 790.691162,848.833313 
	C786.058716,849.378357 783.681091,852.341614 782.980103,856.665100 
	C782.268188,861.055908 784.862000,864.506348 790.835205,866.822815 
z"/>
<path fill="#F7F8FA" opacity="1.000000" stroke="none" 
	d="
M701.849365,976.851562 
	C713.234924,965.754761 722.217773,953.537842 726.925110,938.467407 
	C727.414673,936.899963 729.187134,935.248108 730.763184,934.589417 
	C737.483887,931.780701 744.354492,929.330505 751.434692,926.649536 
	C753.344971,934.167664 752.073914,941.693542 749.808350,948.945374 
	C743.021057,970.669678 729.364807,985.995239 707.320251,993.155090 
	C706.687073,993.360657 706.056641,993.614929 705.404602,993.716309 
	C701.047058,994.394043 696.300781,995.213684 693.794983,990.534912 
	C691.210754,985.709595 695.178162,982.945251 698.305176,980.166931 
	C699.425964,979.171082 700.499573,978.122192 701.849365,976.851562 
z"/>
<path fill="#0C315D" opacity="1.000000" stroke="none" 
	d="
M790.459290,866.728638 
	C784.862000,864.506348 782.268188,861.055908 782.980103,856.665100 
	C783.681091,852.341614 786.058716,849.378357 790.691162,848.833313 
	C796.103577,848.196533 800.628479,851.897400 800.997314,857.191772 
	C801.372070,862.571228 797.341858,866.390808 790.459290,866.728638 
z"/>
</svg>